<svg xmlns="http://www.w3.org/2000/svg" xmlns:xlink="http://www.w3.org/1999/xlink" width="1500" zoomAndPan="magnify" viewBox="0 0 1125 344.250003" height="459" preserveAspectRatio="xMidYMid meet" version="1.0"><defs><clipPath id="309ce7bd69"><path d="M 1.222656 0 L 1123.777344 0 L 1123.777344 343.5 L 1.222656 343.5 Z M 1.222656 0 " clip-rule="nonzero"/></clipPath></defs><g clip-path="url(#309ce7bd69)"><path fill="#ffffff" d="M 1.222656 0 L 1123.777344 0 L 1123.777344 343.5 L 1.222656 343.5 Z M 1.222656 0 " fill-opacity="1" fill-rule="nonzero"/><path fill="#ffffff" d="M 1.222656 0 L 1123.777344 0 L 1123.777344 343.5 L 1.222656 343.5 Z M 1.222656 0 " fill-opacity="1" fill-rule="nonzero"/></g><path fill="#231f20" d="M 412.171875 125.378906 C 407.820312 122.679688 404.390625 118.941406 401.871094 114.15625 C 399.171875 109.003906 397.824219 103.207031 397.824219 96.769531 C 397.824219 90.394531 399.171875 84.667969 401.871094 79.574219 C 404.382812 74.789062 407.785156 71.023438 412.078125 68.261719 C 416.308594 65.5625 420.816406 64.21875 425.59375 64.21875 C 429.152344 64.21875 432.554688 64.988281 435.808594 66.519531 C 439.238281 68.238281 442.304688 70.722656 445.003906 73.96875 L 438.753906 79.117188 C 435.015625 74.582031 430.597656 72.316406 425.511719 72.316406 C 422.140625 72.316406 418.949219 73.324219 415.949219 75.351562 C 412.945312 77.4375 410.550781 80.285156 408.777344 83.902344 C 406.878906 87.769531 405.921875 92.0625 405.921875 96.777344 C 405.921875 101.5625 406.871094 105.886719 408.777344 109.75 C 410.558594 113.308594 412.980469 116.128906 416.046875 118.214844 C 419.050781 120.300781 422.238281 121.339844 425.609375 121.339844 C 428.308594 121.339844 430.910156 120.605469 433.429688 119.132812 C 436 117.660156 438.273438 115.425781 440.234375 112.421875 L 447.039062 116.929688 C 444.277344 121.101562 440.964844 124.253906 437.101562 126.402344 C 433.480469 128.425781 429.652344 129.4375 425.601562 129.4375 C 420.824219 129.421875 416.34375 128.074219 412.171875 125.378906 Z M 412.171875 125.378906 " fill-opacity="1" fill-rule="nonzero"/><path fill="#231f20" d="M 459.359375 126.386719 C 456.046875 124.425781 453.40625 121.789062 451.449219 118.476562 C 449.421875 115.042969 448.414062 111.335938 448.414062 107.351562 C 448.414062 103.367188 449.421875 99.65625 451.449219 96.226562 C 453.40625 92.914062 456.046875 90.28125 459.359375 88.316406 C 462.789062 86.289062 466.5 85.28125 470.484375 85.28125 C 474.46875 85.28125 478.179688 86.289062 481.609375 88.316406 C 484.921875 90.28125 487.554688 92.914062 489.519531 96.226562 C 491.546875 99.65625 492.554688 103.367188 492.554688 107.351562 C 492.367188 113.601562 490.191406 118.820312 486.027344 122.984375 C 481.921875 127.089844 476.742188 129.234375 470.484375 129.421875 C 466.5 129.421875 462.789062 128.414062 459.359375 126.386719 Z M 460.554688 97.511719 C 457.855469 100.210938 456.511719 103.492188 456.511719 107.351562 C 456.511719 111.207031 457.855469 114.527344 460.554688 117.289062 C 463.3125 119.988281 466.625 121.332031 470.492188 121.332031 C 474.355469 121.332031 477.632812 119.988281 480.332031 117.289062 C 483.089844 114.527344 484.472656 111.214844 484.472656 107.351562 C 484.472656 103.484375 483.089844 100.210938 480.332031 97.511719 C 477.632812 94.753906 474.351562 93.375 470.492188 93.375 C 466.632812 93.375 463.3125 94.753906 460.554688 97.511719 Z M 460.554688 97.511719 " fill-opacity="1" fill-rule="nonzero"/><path fill="#231f20" d="M 496.699219 128.136719 L 496.699219 105.511719 C 496.699219 101.894531 497.617188 98.492188 499.457031 95.296875 C 501.234375 92.292969 503.660156 89.898438 506.722656 88.121094 C 509.847656 86.28125 513.222656 85.363281 516.839844 85.363281 C 520.519531 85.363281 523.921875 86.28125 527.054688 88.121094 C 530.117188 89.898438 532.539062 92.292969 534.320312 95.296875 C 536.160156 98.492188 537.078125 101.894531 537.078125 105.511719 L 528.980469 105.511719 C 528.980469 102.199219 527.785156 99.351562 525.394531 96.957031 C 523.058594 94.625 520.210938 93.464844 516.839844 93.464844 C 513.527344 93.464844 510.707031 94.632812 508.375 96.957031 C 505.984375 99.351562 504.789062 102.199219 504.789062 105.511719 L 504.789062 128.136719 Z M 496.699219 128.136719 " fill-opacity="1" fill-rule="nonzero"/><path fill="#231f20" d="M 573.863281 88.316406 C 577.175781 90.28125 579.808594 92.914062 581.773438 96.226562 C 583.859375 99.65625 584.898438 103.394531 584.898438 107.449219 C 584.898438 111.3125 583.921875 114.960938 581.953125 118.394531 C 579.988281 121.765625 577.355469 124.433594 574.042969 126.394531 C 570.613281 128.421875 566.867188 129.429688 562.820312 129.429688 C 557.550781 129.429688 552.886719 127.777344 548.839844 124.464844 L 548.839844 149.117188 L 540.75 149.117188 L 540.75 107.449219 C 540.9375 101.136719 543.113281 95.917969 547.277344 91.8125 C 551.382812 87.640625 556.5625 85.496094 562.820312 85.375 C 566.753906 85.371094 570.433594 86.347656 573.863281 88.316406 Z M 572.667969 117.289062 C 575.425781 114.527344 576.808594 111.246094 576.808594 107.449219 C 576.808594 103.582031 575.425781 100.269531 572.667969 97.511719 C 569.96875 94.8125 566.6875 93.464844 562.828125 93.464844 C 558.964844 93.464844 555.652344 94.8125 552.890625 97.511719 C 550.195312 100.269531 548.847656 103.582031 548.847656 107.449219 C 548.847656 111.253906 550.195312 114.527344 552.890625 117.289062 C 555.652344 119.988281 558.964844 121.332031 562.828125 121.332031 C 566.695312 121.332031 569.96875 119.980469 572.667969 117.289062 Z M 572.667969 117.289062 " fill-opacity="1" fill-rule="nonzero"/><path fill="#231f20" d="M 598.605469 126.386719 C 595.292969 124.425781 592.652344 121.789062 590.695312 118.476562 C 588.667969 115.042969 587.660156 111.335938 587.660156 107.351562 C 587.660156 103.367188 588.667969 99.65625 590.695312 96.226562 C 592.652344 92.914062 595.292969 90.28125 598.605469 88.316406 C 602.035156 86.289062 605.746094 85.28125 609.730469 85.28125 C 613.714844 85.28125 617.421875 86.289062 620.855469 88.316406 C 624.167969 90.28125 626.800781 92.914062 628.765625 96.226562 C 630.792969 99.65625 631.800781 103.367188 631.800781 107.351562 C 631.613281 113.601562 629.4375 118.820312 625.273438 122.984375 C 621.167969 127.089844 615.988281 129.234375 609.730469 129.421875 C 605.753906 129.421875 602.035156 128.414062 598.605469 126.386719 Z M 599.800781 97.511719 C 597.101562 100.210938 595.757812 103.492188 595.757812 107.351562 C 595.757812 111.207031 597.101562 114.527344 599.800781 117.289062 C 602.558594 119.988281 605.871094 121.332031 609.738281 121.332031 C 613.601562 121.332031 616.878906 119.988281 619.578125 117.289062 C 622.335938 114.527344 623.71875 111.214844 623.71875 107.351562 C 623.71875 103.484375 622.335938 100.210938 619.578125 97.511719 C 616.878906 94.753906 613.59375 93.375 609.738281 93.375 C 605.871094 93.371094 602.558594 94.753906 599.800781 97.511719 Z M 599.800781 97.511719 " fill-opacity="1" fill-rule="nonzero"/><path fill="#231f20" d="M 635.949219 128.136719 L 635.949219 105.511719 C 635.949219 101.894531 636.871094 98.492188 638.710938 95.296875 C 640.488281 92.292969 642.910156 89.898438 645.976562 88.121094 C 649.101562 86.28125 652.472656 85.363281 656.09375 85.363281 C 659.773438 85.363281 663.171875 86.28125 666.304688 88.121094 C 669.371094 89.898438 671.792969 92.292969 673.574219 95.296875 C 675.414062 98.492188 676.332031 101.894531 676.332031 105.511719 L 668.234375 105.511719 C 668.234375 102.199219 667.039062 99.351562 664.648438 96.957031 C 662.3125 94.625 659.464844 93.464844 656.09375 93.464844 C 652.78125 93.464844 649.960938 94.632812 647.628906 96.957031 C 645.238281 99.351562 644.039062 102.199219 644.039062 105.511719 L 644.039062 128.136719 Z M 635.949219 128.136719 " fill-opacity="1" fill-rule="nonzero"/><path fill="#231f20" d="M 716.699219 91.808594 C 720.863281 95.980469 723.046875 101.191406 723.226562 107.441406 L 723.226562 128.136719 L 715.128906 128.136719 L 715.128906 124.457031 C 711.023438 127.769531 706.417969 129.421875 701.335938 129.421875 C 697.46875 129.421875 693.851562 128.503906 690.476562 126.664062 C 687.046875 124.765625 684.316406 122.183594 682.292969 118.941406 C 680.144531 115.449219 679.078125 111.613281 679.078125 107.441406 C 679.261719 101.191406 681.402344 95.980469 685.515625 91.808594 C 689.679688 87.632812 694.898438 85.488281 701.148438 85.371094 C 707.414062 85.488281 712.59375 87.632812 716.699219 91.808594 Z M 711.269531 97.789062 C 708.570312 94.910156 705.199219 93.464844 701.15625 93.464844 C 697.289062 93.464844 693.976562 94.8125 691.21875 97.511719 C 688.519531 100.269531 687.171875 103.582031 687.171875 107.449219 C 687.171875 111.492188 688.617188 114.863281 691.496094 117.5625 C 694.253906 120.074219 697.507812 121.332031 701.246094 121.332031 C 705.042969 121.332031 708.296875 119.988281 710.996094 117.289062 C 713.753906 114.589844 715.136719 111.34375 715.136719 107.539062 C 715.136719 103.792969 713.851562 100.546875 711.269531 97.789062 Z M 711.269531 97.789062 " fill-opacity="1" fill-rule="nonzero"/><path fill="#231f20" d="M 750.824219 129.519531 C 744.574219 129.332031 739.355469 127.195312 735.1875 123.082031 C 731.078125 118.917969 728.9375 113.699219 728.75 107.449219 L 728.75 65.59375 L 736.839844 65.59375 L 736.839844 86.746094 L 747.699219 86.746094 L 747.699219 94.84375 L 736.839844 94.84375 L 736.839844 107.441406 C 736.839844 111.304688 738.1875 114.617188 740.886719 117.378906 C 743.644531 120.074219 746.957031 121.421875 750.824219 121.421875 Z M 750.824219 129.519531 " fill-opacity="1" fill-rule="nonzero"/><path fill="#231f20" d="M 771.699219 121.332031 C 775.871094 121.332031 779.453125 119.648438 782.457031 116.277344 L 789.449219 120.421875 C 787.242188 123.425781 784.574219 125.722656 781.449219 127.320312 C 778.5 128.726562 775.375 129.4375 772.0625 129.4375 C 768.199219 129.4375 764.578125 128.515625 761.207031 126.679688 C 757.714844 124.839844 754.957031 122.296875 752.929688 119.042969 C 750.726562 115.550781 749.621094 111.6875 749.621094 107.457031 C 749.621094 102.984375 750.726562 98.992188 752.929688 95.5 C 754.949219 92.316406 757.746094 89.824219 761.296875 88.046875 C 764.667969 86.265625 768.257812 85.375 772.058594 85.375 C 776.59375 85.375 780.667969 86.601562 784.289062 89.054688 C 788.214844 91.695312 790.972656 95.492188 792.566406 100.457031 L 762.398438 117.839844 C 765.035156 120.171875 768.101562 121.332031 771.59375 121.332031 Z M 758.179688 111.027344 L 768.109375 105.234375 L 768.296875 105.144531 L 768.386719 105.054688 L 768.847656 104.777344 L 769.027344 104.6875 L 769.394531 104.507812 L 771.324219 103.402344 L 771.414062 103.3125 L 771.503906 103.3125 L 771.59375 103.222656 L 771.683594 103.222656 L 771.960938 103.035156 L 772.234375 102.855469 L 772.601562 102.671875 L 774.441406 101.5625 L 774.53125 101.5625 L 774.710938 101.382812 L 774.800781 101.382812 L 774.890625 101.292969 L 774.980469 101.292969 L 775.167969 101.203125 L 775.257812 101.113281 L 775.445312 101.027344 L 775.621094 100.9375 L 775.710938 100.847656 L 775.898438 100.757812 L 777.460938 99.835938 L 777.550781 99.835938 L 777.730469 99.746094 L 780.035156 98.363281 L 780.953125 97.808594 L 781.320312 97.632812 L 781.5 97.542969 C 778.742188 94.78125 775.519531 93.40625 771.839844 93.40625 C 768.042969 93.40625 764.757812 94.722656 762 97.363281 C 759.054688 100.0625 757.582031 103.34375 757.582031 107.203125 C 757.625 108.457031 757.8125 109.742188 758.179688 111.027344 Z M 758.179688 111.027344 " fill-opacity="1" fill-rule="nonzero"/><path fill="#231f20" d="M 833.964844 125.378906 C 829.613281 122.617188 826.144531 118.851562 823.570312 114.066406 C 820.871094 108.972656 819.527344 103.207031 819.527344 96.769531 C 819.527344 90.214844 820.84375 84.390625 823.480469 79.296875 C 825.992188 74.453125 829.425781 70.683594 833.785156 67.984375 C 838.015625 65.347656 842.613281 64.03125 847.578125 64.03125 C 854.570312 64.03125 861.007812 66.574219 866.890625 71.664062 L 865.238281 73.503906 L 864.871094 73.960938 L 864.78125 73.960938 L 864.691406 74.148438 L 864.511719 74.328125 L 864.238281 74.691406 L 864.148438 74.78125 L 864.058594 74.960938 L 861.574219 77.71875 C 857.222656 73.980469 852.527344 72.113281 847.503906 72.113281 C 843.945312 72.113281 840.664062 73.09375 837.664062 75.058594 C 834.597656 77.078125 832.207031 79.875 830.496094 83.425781 C 828.59375 87.289062 827.636719 91.730469 827.636719 96.765625 C 827.636719 101.183594 828.527344 105.316406 830.308594 109.183594 C 832.019531 112.859375 834.351562 115.777344 837.296875 117.921875 C 840.304688 120.195312 843.550781 121.324219 847.046875 121.324219 C 849.746094 121.324219 852.347656 120.800781 854.867188 119.761719 C 857.378906 118.78125 859.527344 117.398438 861.304688 115.621094 L 861.304688 100.808594 L 848.246094 100.808594 L 848.246094 92.71875 L 869.394531 92.71875 L 869.394531 118.65625 C 866.332031 122.273438 862.898438 125.003906 859.09375 126.84375 C 855.472656 128.5625 851.734375 129.421875 847.871094 129.421875 C 842.890625 129.421875 838.253906 128.074219 833.964844 125.378906 Z M 833.964844 125.378906 " fill-opacity="1" fill-rule="nonzero"/><path fill="#231f20" d="M 882.988281 86.746094 L 882.988281 128.136719 L 874.898438 128.136719 L 874.898438 86.746094 Z M 882.988281 86.746094 " fill-opacity="1" fill-rule="nonzero"/><path fill="#231f20" d="M 907.453125 86.746094 L 907.453125 94.84375 L 896.597656 94.84375 L 896.597656 128.136719 L 888.507812 128.136719 L 888.507812 86.199219 C 888.691406 80.007812 890.832031 74.828125 894.945312 70.65625 C 899.109375 66.484375 904.328125 64.335938 910.578125 64.21875 L 910.578125 72.21875 C 906.710938 72.277344 903.398438 73.660156 900.640625 76.359375 C 897.941406 79.058594 896.597656 82.339844 896.597656 86.199219 L 896.597656 86.753906 L 907.453125 86.753906 Z M 907.453125 86.746094 " fill-opacity="1" fill-rule="nonzero"/><path fill="#231f20" d="M 936.789062 129.519531 C 930.539062 129.332031 925.320312 127.195312 921.15625 123.082031 C 917.042969 118.917969 914.90625 113.699219 914.71875 107.449219 L 914.71875 65.59375 L 922.808594 65.59375 L 922.808594 86.746094 L 933.664062 86.746094 L 933.664062 94.84375 L 922.808594 94.84375 L 922.808594 107.441406 C 922.808594 111.304688 924.15625 114.617188 926.855469 117.378906 C 929.613281 120.074219 932.925781 121.421875 936.789062 121.421875 Z M 936.789062 129.519531 " fill-opacity="1" fill-rule="nonzero"/><path fill="#231f20" d="M 950.398438 86.746094 L 950.398438 128.136719 L 942.308594 128.136719 L 942.308594 86.746094 Z M 950.398438 86.746094 " fill-opacity="1" fill-rule="nonzero"/><path fill="#231f20" d="M 988.199219 128.136719 L 988.199219 105.511719 C 988.199219 102.199219 987.003906 99.351562 984.613281 96.957031 C 982.277344 94.625 979.429688 93.464844 976.058594 93.464844 C 972.746094 93.464844 969.898438 94.632812 967.503906 96.957031 C 965.171875 99.351562 964.011719 102.199219 964.011719 105.511719 L 964.011719 128.136719 L 955.921875 128.136719 L 955.921875 105.511719 C 955.921875 101.894531 956.84375 98.519531 958.683594 95.394531 C 960.460938 92.328125 962.882812 89.90625 965.949219 88.128906 C 969.074219 86.289062 972.445312 85.371094 976.066406 85.371094 C 979.746094 85.371094 983.144531 86.289062 986.277344 88.128906 C 989.34375 89.90625 991.765625 92.328125 993.546875 95.394531 C 995.386719 98.519531 996.304688 101.894531 996.304688 105.511719 L 996.304688 128.136719 Z M 988.199219 128.136719 " fill-opacity="1" fill-rule="nonzero"/><path fill="#231f20" d="M 1041.824219 117.921875 C 1039.984375 121.355469 1037.464844 124.121094 1034.277344 126.199219 C 1030.789062 128.34375 1026.863281 129.421875 1022.503906 129.421875 C 1016.253906 129.292969 1011.035156 127.15625 1006.871094 122.984375 C 1002.757812 118.8125 1000.617188 113.636719 1000.433594 107.441406 C 1000.433594 103.394531 1001.441406 99.65625 1003.46875 96.21875 C 1005.425781 92.90625 1008.097656 90.273438 1011.46875 88.308594 C 1014.839844 86.347656 1018.488281 85.363281 1022.414062 85.363281 C 1023.757812 85.363281 1025.054688 85.453125 1026.277344 85.636719 L 1028.027344 84.074219 L 1029.867188 82.238281 L 1030.046875 82.058594 L 1030.226562 81.871094 L 1030.40625 81.691406 L 1030.863281 81.226562 L 1031.140625 81.046875 L 1031.320312 80.867188 L 1031.320312 80.777344 L 1031.40625 80.777344 L 1031.40625 80.6875 L 1031.496094 80.597656 L 1031.675781 80.414062 L 1031.953125 80.234375 L 1032.132812 80.054688 L 1032.3125 79.867188 L 1032.957031 79.222656 L 1035.992188 82.347656 L 1038.5625 85.109375 L 1034.519531 88.972656 C 1037.832031 91.117188 1040.34375 93.847656 1042.0625 97.160156 C 1043.714844 100.285156 1044.542969 103.628906 1044.542969 107.1875 C 1044.582031 110.96875 1043.664062 114.558594 1041.824219 117.921875 Z M 1032.351562 117.289062 C 1035.109375 114.527344 1036.492188 111.246094 1036.492188 107.449219 C 1036.492188 103.582031 1035.109375 100.269531 1032.351562 97.511719 C 1029.652344 94.8125 1026.367188 93.464844 1022.511719 93.464844 C 1018.652344 93.464844 1015.332031 94.8125 1012.574219 97.511719 C 1009.875 100.269531 1008.53125 103.582031 1008.53125 107.449219 C 1008.53125 111.253906 1009.875 114.527344 1012.574219 117.289062 C 1015.332031 119.988281 1018.644531 121.332031 1022.511719 121.332031 C 1026.375 121.332031 1029.652344 119.980469 1032.351562 117.289062 Z M 1042.101562 137.152344 C 1040.261719 140.464844 1037.777344 143.066406 1034.652344 144.972656 C 1031.09375 147.179688 1027.050781 148.285156 1022.511719 148.285156 L 1016.074219 148.285156 L 1016.074219 140.195312 L 1022.511719 140.195312 C 1025.941406 140.195312 1028.859375 139.335938 1031.25 137.617188 C 1033.03125 136.269531 1034.40625 134.492188 1035.394531 132.285156 C 1036.125 130.691406 1036.5 129.28125 1036.5 128.054688 L 1044.597656 128.054688 C 1044.582031 131.113281 1043.753906 134.148438 1042.101562 137.152344 Z M 1042.101562 137.152344 " fill-opacity="1" fill-rule="nonzero"/><path fill="#231f20" d="M 443.816406 215.664062 C 441.667969 218.542969 438.753906 220.847656 435.074219 222.558594 C 431.148438 224.457031 426.828125 225.414062 422.101562 225.414062 C 416.398438 225.414062 411.402344 224.128906 407.113281 221.550781 C 402.820312 218.96875 399.726562 215.390625 397.824219 210.789062 L 405.28125 207.753906 C 406.625 210.941406 408.867188 213.363281 411.996094 215.023438 C 414.691406 216.496094 417.847656 217.226562 421.46875 217.226562 C 424.34375 217.226562 427.140625 216.773438 429.832031 215.84375 C 432.53125 214.925781 434.679688 213.699219 436.269531 212.167969 C 437.984375 210.574219 438.851562 208.855469 438.851562 207.015625 C 438.851562 204.621094 437.226562 202.597656 433.976562 200.945312 C 431.957031 199.90625 428.152344 198.617188 422.574219 197.078125 C 417.480469 195.664062 413.742188 194.5 411.351562 193.585938 C 407.367188 191.996094 404.332031 190.125 402.246094 187.980469 C 399.792969 185.339844 398.566406 182.183594 398.566406 178.507812 C 398.566406 174.886719 399.730469 171.644531 402.058594 168.757812 C 404.261719 166.117188 407.269531 164.007812 411.074219 162.410156 C 414.753906 160.9375 418.648438 160.203125 422.753906 160.203125 C 427.84375 160.203125 432.375 161.339844 436.367188 163.605469 C 440.847656 166.183594 444.089844 169.894531 446.117188 174.730469 L 438.664062 177.765625 C 437.316406 174.582031 435.105469 172.160156 432.039062 170.5 C 429.339844 168.964844 426.246094 168.195312 422.753906 168.195312 C 418.582031 168.195312 414.871094 169.175781 411.628906 171.140625 C 408.253906 173.167969 406.566406 175.621094 406.566406 178.5 C 406.566406 181.011719 408.285156 183.128906 411.71875 184.847656 C 413.742188 185.953125 417.632812 187.300781 423.394531 188.890625 C 428.421875 190.304688 432.097656 191.472656 434.433594 192.382812 C 438.355469 193.976562 441.332031 195.785156 443.351562 197.8125 C 445.742188 200.324219 446.941406 203.300781 446.941406 206.730469 C 446.941406 209.8125 445.902344 212.785156 443.816406 215.664062 Z M 443.816406 215.664062 " fill-opacity="1" fill-rule="nonzero"/><path fill="#231f20" d="M 460.644531 222.378906 C 457.332031 220.421875 454.695312 217.78125 452.734375 214.46875 C 450.707031 211.039062 449.699219 207.328125 449.699219 203.34375 C 449.699219 199.359375 450.707031 195.652344 452.734375 192.21875 C 454.695312 188.90625 457.332031 186.273438 460.644531 184.308594 C 464.078125 182.28125 467.785156 181.273438 471.769531 181.273438 C 475.753906 181.273438 479.464844 182.28125 482.894531 184.308594 C 486.207031 186.273438 488.839844 188.90625 490.804688 192.21875 C 492.832031 195.652344 493.839844 199.359375 493.839844 203.34375 C 493.65625 209.59375 491.480469 214.8125 487.3125 218.976562 C 483.210938 223.082031 478.027344 225.226562 471.769531 225.414062 C 467.792969 225.414062 464.078125 224.40625 460.644531 222.378906 Z M 461.839844 193.496094 C 459.140625 196.195312 457.796875 199.480469 457.796875 203.335938 C 457.796875 207.195312 459.140625 210.515625 461.839844 213.273438 C 464.601562 215.972656 467.914062 217.316406 471.777344 217.316406 C 475.644531 217.316406 478.917969 215.972656 481.617188 213.273438 C 484.375 210.515625 485.757812 207.203125 485.757812 203.335938 C 485.757812 199.472656 484.375 196.195312 481.617188 193.496094 C 478.917969 190.738281 475.636719 189.363281 471.777344 189.363281 C 467.914062 189.363281 464.601562 190.746094 461.839844 193.496094 Z M 461.839844 193.496094 " fill-opacity="1" fill-rule="nonzero"/><path fill="#231f20" d="M 497.992188 161.585938 L 506.082031 161.585938 L 506.082031 224.128906 L 497.992188 224.128906 Z M 497.992188 161.585938 " fill-opacity="1" fill-rule="nonzero"/><path fill="#231f20" d="M 551.972656 205.363281 C 551.972656 208.980469 551.054688 212.382812 549.214844 215.566406 C 547.433594 218.574219 545.011719 220.964844 541.945312 222.746094 C 538.820312 224.585938 535.417969 225.503906 531.734375 225.503906 C 528.113281 225.503906 524.742188 224.585938 521.617188 222.746094 C 518.550781 220.964844 516.128906 218.574219 514.351562 215.566406 C 512.511719 212.382812 511.589844 208.980469 511.589844 205.363281 L 511.589844 182.738281 L 519.679688 182.738281 L 519.679688 205.273438 C 519.679688 208.644531 520.847656 211.492188 523.171875 213.828125 C 525.566406 216.21875 528.414062 217.414062 531.726562 217.414062 C 535.097656 217.414062 537.945312 216.21875 540.277344 213.828125 C 542.671875 211.5 543.867188 208.644531 543.867188 205.273438 L 543.867188 182.738281 L 551.964844 182.738281 L 551.964844 205.363281 Z M 551.972656 205.363281 " fill-opacity="1" fill-rule="nonzero"/><path fill="#231f20" d="M 579.570312 225.503906 C 573.320312 225.316406 568.101562 223.179688 563.933594 219.066406 C 559.824219 214.902344 557.683594 209.683594 557.5 203.433594 L 557.5 161.585938 L 565.589844 161.585938 L 565.589844 182.738281 L 576.445312 182.738281 L 576.445312 190.835938 L 565.589844 190.835938 L 565.589844 203.433594 C 565.589844 207.300781 566.933594 210.613281 569.632812 213.371094 C 572.390625 216.070312 575.703125 217.414062 579.570312 217.414062 Z M 579.570312 225.503906 " fill-opacity="1" fill-rule="nonzero"/><path fill="#231f20" d="M 585.085938 182.738281 L 593.175781 182.738281 L 593.175781 224.128906 L 585.085938 224.128906 Z M 585.085938 182.738281 " fill-opacity="1" fill-rule="nonzero"/><path fill="#231f20" d="M 608.265625 222.378906 C 604.953125 220.421875 602.3125 217.78125 600.355469 214.46875 C 598.328125 211.039062 597.320312 207.328125 597.320312 203.34375 C 597.320312 199.359375 598.328125 195.652344 600.355469 192.21875 C 602.3125 188.90625 604.953125 186.273438 608.265625 184.308594 C 611.695312 182.28125 615.40625 181.273438 619.390625 181.273438 C 623.375 181.273438 627.082031 182.28125 630.515625 184.308594 C 633.828125 186.273438 636.460938 188.90625 638.425781 192.21875 C 640.453125 195.652344 641.460938 199.359375 641.460938 203.34375 C 641.273438 209.59375 639.097656 214.8125 634.933594 218.976562 C 630.828125 223.082031 625.648438 225.226562 619.390625 225.414062 C 615.40625 225.414062 611.695312 224.40625 608.265625 222.378906 Z M 609.453125 193.496094 C 606.753906 196.195312 605.410156 199.480469 605.410156 203.335938 C 605.410156 207.195312 606.753906 210.515625 609.453125 213.273438 C 612.210938 215.972656 615.523438 217.316406 619.390625 217.316406 C 623.253906 217.316406 626.53125 215.972656 629.230469 213.273438 C 631.988281 210.515625 633.371094 207.203125 633.371094 203.335938 C 633.371094 199.472656 631.988281 196.195312 629.230469 193.496094 C 626.53125 190.738281 623.25 189.363281 619.390625 189.363281 C 615.523438 189.363281 612.21875 190.746094 609.453125 193.496094 Z M 609.453125 193.496094 " fill-opacity="1" fill-rule="nonzero"/><path fill="#231f20" d="M 677.886719 224.128906 L 677.886719 201.503906 C 677.886719 198.191406 676.691406 195.34375 674.300781 192.953125 C 671.964844 190.617188 669.117188 189.460938 665.746094 189.460938 C 662.433594 189.460938 659.585938 190.625 657.191406 192.953125 C 654.859375 195.34375 653.699219 198.191406 653.699219 201.503906 L 653.699219 224.128906 L 645.609375 224.128906 L 645.609375 201.503906 C 645.609375 197.886719 646.53125 194.515625 648.371094 191.390625 C 650.148438 188.324219 652.570312 185.902344 655.636719 184.121094 C 658.761719 182.28125 662.132812 181.363281 665.753906 181.363281 C 669.433594 181.363281 672.832031 182.28125 675.964844 184.121094 C 679.03125 185.902344 681.453125 188.324219 683.234375 191.390625 C 685.074219 194.515625 685.992188 197.886719 685.992188 201.503906 L 685.992188 224.128906 Z M 677.886719 224.128906 " fill-opacity="1" fill-rule="nonzero"/><path fill="#231f20" d="M 410.617188 250.851562 L 410.617188 253.222656 L 400.914062 253.222656 L 400.914062 260.75 L 408.792969 260.75 L 408.792969 263.121094 L 400.914062 263.121094 L 400.914062 273.175781 L 397.996094 273.175781 L 397.996094 250.851562 Z M 410.617188 250.851562 " fill-opacity="1" fill-rule="nonzero"/><path fill="#231f20" d="M 419.246094 256.128906 C 420.195312 255.574219 421.355469 255.300781 422.722656 255.300781 L 422.722656 258.3125 L 421.953125 258.3125 C 418.6875 258.3125 417.054688 260.085938 417.054688 263.628906 L 417.054688 273.175781 L 414.140625 273.175781 L 414.140625 255.621094 L 417.054688 255.621094 L 417.054688 258.46875 C 417.570312 257.46875 418.296875 256.691406 419.246094 256.128906 Z M 419.246094 256.128906 " fill-opacity="1" fill-rule="nonzero"/><path fill="#231f20" d="M 429.273438 272.339844 C 427.933594 271.589844 426.886719 270.53125 426.132812 269.152344 C 425.371094 267.777344 424.996094 266.179688 424.996094 264.367188 C 424.996094 262.574219 425.386719 260.988281 426.164062 259.613281 C 426.941406 258.238281 428 257.175781 429.347656 256.445312 C 430.695312 255.703125 432.195312 255.335938 433.863281 255.335938 C 435.53125 255.335938 437.035156 255.703125 438.378906 256.445312 C 439.726562 257.175781 440.785156 258.230469 441.566406 259.597656 C 442.34375 260.96875 442.730469 262.558594 442.730469 264.367188 C 442.730469 266.179688 442.335938 267.777344 441.527344 269.152344 C 440.726562 270.53125 439.644531 271.589844 438.273438 272.339844 C 436.90625 273.085938 435.390625 273.460938 433.730469 273.460938 C 432.097656 273.460938 430.609375 273.085938 429.273438 272.339844 Z M 436.691406 270.164062 C 437.609375 269.667969 438.347656 268.9375 438.917969 267.949219 C 439.484375 266.96875 439.769531 265.773438 439.769531 264.359375 C 439.769531 262.949219 439.492188 261.757812 438.941406 260.773438 C 438.386719 259.785156 437.660156 259.058594 436.765625 258.582031 C 435.867188 258.101562 434.894531 257.863281 433.847656 257.863281 C 432.78125 257.863281 431.808594 258.101562 430.917969 258.582031 C 430.027344 259.058594 429.316406 259.792969 428.785156 260.773438 C 428.25 261.75 427.988281 262.949219 427.988281 264.359375 C 427.988281 265.789062 428.25 267 428.773438 267.980469 C 429.296875 268.960938 429.992188 269.691406 430.871094 270.171875 C 431.753906 270.648438 432.710938 270.886719 433.757812 270.886719 C 434.804688 270.886719 435.769531 270.65625 436.691406 270.164062 Z M 436.691406 270.164062 " fill-opacity="1" fill-rule="nonzero"/><path fill="#231f20" d="M 471.351562 256.152344 C 472.421875 256.71875 473.265625 257.566406 473.886719 258.703125 C 474.507812 259.832031 474.8125 261.214844 474.8125 262.835938 L 474.8125 273.183594 L 471.925781 273.183594 L 471.925781 263.246094 C 471.925781 261.496094 471.492188 260.152344 470.625 259.226562 C 469.757812 258.296875 468.59375 257.835938 467.121094 257.835938 C 465.601562 257.835938 464.398438 258.320312 463.5 259.292969 C 462.605469 260.265625 462.15625 261.667969 462.15625 263.5 L 462.15625 273.175781 L 459.269531 273.175781 L 459.269531 263.246094 C 459.269531 261.496094 458.835938 260.152344 457.976562 259.226562 C 457.109375 258.296875 455.941406 257.835938 454.46875 257.835938 C 452.953125 257.835938 451.746094 258.320312 450.851562 259.292969 C 449.953125 260.265625 449.503906 261.667969 449.503906 263.5 L 449.503906 273.175781 L 446.589844 273.175781 L 446.589844 255.621094 L 449.503906 255.621094 L 449.503906 258.148438 C 450.082031 257.226562 450.851562 256.527344 451.824219 256.03125 C 452.792969 255.539062 453.863281 255.300781 455.046875 255.300781 C 456.519531 255.300781 457.820312 255.628906 458.957031 256.292969 C 460.085938 256.960938 460.929688 257.921875 461.480469 259.210938 C 461.976562 257.96875 462.785156 257.011719 463.917969 256.324219 C 465.046875 255.636719 466.3125 255.300781 467.695312 255.300781 C 469.0625 255.300781 470.28125 255.582031 471.351562 256.152344 Z M 471.351562 256.152344 " fill-opacity="1" fill-rule="nonzero"/><path fill="#231f20" d="M 491.253906 272.617188 C 490.089844 272.09375 489.175781 271.367188 488.519531 270.441406 C 487.851562 269.511719 487.515625 268.4375 487.492188 267.226562 L 490.597656 267.226562 C 490.703125 268.273438 491.136719 269.152344 491.898438 269.863281 C 492.652344 270.582031 493.757812 270.933594 495.210938 270.933594 C 496.601562 270.933594 497.691406 270.589844 498.492188 269.894531 C 499.292969 269.199219 499.695312 268.308594 499.695312 267.21875 C 499.695312 266.363281 499.464844 265.667969 498.992188 265.132812 C 498.523438 264.601562 497.9375 264.1875 497.234375 263.914062 C 496.53125 263.636719 495.582031 263.335938 494.386719 263.015625 C 492.914062 262.632812 491.734375 262.246094 490.851562 261.863281 C 489.960938 261.484375 489.207031 260.878906 488.578125 260.054688 C 487.949219 259.230469 487.636719 258.125 487.636719 256.742188 C 487.636719 255.523438 487.941406 254.445312 488.5625 253.503906 C 489.183594 252.5625 490.050781 251.835938 491.171875 251.328125 C 492.292969 250.8125 493.578125 250.558594 495.03125 250.558594 C 497.125 250.558594 498.835938 251.082031 500.167969 252.128906 C 501.503906 253.175781 502.253906 254.566406 502.425781 256.292969 L 499.226562 256.292969 C 499.121094 255.441406 498.671875 254.6875 497.878906 254.035156 C 497.085938 253.386719 496.039062 253.054688 494.738281 253.054688 C 493.519531 253.054688 492.527344 253.371094 491.761719 254.007812 C 490.992188 254.632812 490.613281 255.515625 490.613281 256.644531 C 490.613281 257.460938 490.84375 258.117188 491.300781 258.632812 C 491.753906 259.148438 492.324219 259.539062 492.996094 259.800781 C 493.667969 260.070312 494.613281 260.367188 495.832031 260.710938 C 497.304688 261.117188 498.492188 261.519531 499.390625 261.917969 C 500.285156 262.3125 501.054688 262.917969 501.691406 263.742188 C 502.328125 264.5625 502.648438 265.675781 502.648438 267.089844 C 502.648438 268.183594 502.363281 269.207031 501.78125 270.164062 C 501.207031 271.128906 500.355469 271.90625 499.21875 272.503906 C 498.089844 273.101562 496.75 273.402344 495.210938 273.402344 C 493.738281 273.402344 492.421875 273.140625 491.253906 272.617188 Z M 491.253906 272.617188 " fill-opacity="1" fill-rule="nonzero"/><path fill="#231f20" d="M 531.695312 256.152344 C 532.765625 256.71875 533.609375 257.566406 534.230469 258.703125 C 534.851562 259.832031 535.15625 261.214844 535.15625 262.835938 L 535.15625 273.183594 L 532.273438 273.183594 L 532.273438 263.246094 C 532.273438 261.496094 531.839844 260.152344 530.972656 259.226562 C 530.101562 258.296875 528.9375 257.835938 527.464844 257.835938 C 525.945312 257.835938 524.742188 258.320312 523.84375 259.292969 C 522.949219 260.265625 522.5 261.667969 522.5 263.5 L 522.5 273.175781 L 519.613281 273.175781 L 519.613281 263.246094 C 519.613281 261.496094 519.179688 260.152344 518.320312 259.226562 C 517.453125 258.296875 516.285156 257.835938 514.8125 257.835938 C 513.296875 257.835938 512.09375 258.320312 511.195312 259.292969 C 510.296875 260.265625 509.847656 261.667969 509.847656 263.5 L 509.847656 273.175781 L 506.933594 273.175781 L 506.933594 255.621094 L 509.847656 255.621094 L 509.847656 258.148438 C 510.425781 257.226562 511.195312 256.527344 512.167969 256.03125 C 513.140625 255.539062 514.207031 255.300781 515.390625 255.300781 C 516.863281 255.300781 518.164062 255.628906 519.300781 256.292969 C 520.429688 256.960938 521.273438 257.921875 521.828125 259.210938 C 522.320312 257.96875 523.128906 257.011719 524.265625 256.324219 C 525.394531 255.636719 526.65625 255.300781 528.039062 255.300781 C 529.40625 255.300781 530.625 255.582031 531.695312 256.152344 Z M 531.695312 256.152344 " fill-opacity="1" fill-rule="nonzero"/><path fill="#231f20" d="M 539.929688 259.605469 C 540.652344 258.253906 541.648438 257.199219 542.917969 256.449219 C 544.191406 255.703125 545.601562 255.328125 547.164062 255.328125 C 548.707031 255.328125 550.035156 255.660156 551.171875 256.324219 C 552.300781 256.988281 553.148438 257.820312 553.699219 258.820312 L 553.699219 255.621094 L 556.644531 255.621094 L 556.644531 273.175781 L 553.699219 273.175781 L 553.699219 269.910156 C 553.125 270.933594 552.265625 271.777344 551.121094 272.449219 C 549.976562 273.125 548.644531 273.460938 547.136719 273.460938 C 545.574219 273.460938 544.167969 273.078125 542.902344 272.308594 C 541.648438 271.539062 540.652344 270.460938 539.929688 269.070312 C 539.203125 267.679688 538.835938 266.101562 538.835938 264.332031 C 538.835938 262.535156 539.203125 260.96875 539.929688 259.605469 Z M 552.898438 260.90625 C 552.363281 259.925781 551.644531 259.171875 550.738281 258.648438 C 549.828125 258.125 548.832031 257.863281 547.742188 257.863281 C 546.648438 257.863281 545.664062 258.117188 544.765625 258.632812 C 543.867188 259.148438 543.148438 259.890625 542.621094 260.878906 C 542.082031 261.855469 541.820312 263.007812 541.820312 264.339844 C 541.820312 265.683594 542.089844 266.851562 542.621094 267.84375 C 543.148438 268.839844 543.867188 269.59375 544.765625 270.117188 C 545.664062 270.640625 546.65625 270.902344 547.742188 270.902344 C 548.832031 270.902344 549.828125 270.640625 550.738281 270.117188 C 551.644531 269.59375 552.367188 268.839844 552.898438 267.84375 C 553.429688 266.851562 553.699219 265.691406 553.699219 264.367188 C 553.699219 263.039062 553.429688 261.886719 552.898438 260.90625 Z M 552.898438 260.90625 " fill-opacity="1" fill-rule="nonzero"/><path fill="#231f20" d="M 566.6875 256.128906 C 567.636719 255.574219 568.796875 255.300781 570.164062 255.300781 L 570.164062 258.3125 L 569.394531 258.3125 C 566.125 258.3125 564.496094 260.085938 564.496094 263.628906 L 564.496094 273.175781 L 561.582031 273.175781 L 561.582031 255.621094 L 564.496094 255.621094 L 564.496094 258.46875 C 565.003906 257.46875 565.738281 256.691406 566.6875 256.128906 Z M 566.6875 256.128906 " fill-opacity="1" fill-rule="nonzero"/><path fill="#231f20" d="M 577.078125 258.019531 L 577.078125 268.367188 C 577.078125 269.222656 577.257812 269.828125 577.625 270.179688 C 577.992188 270.53125 578.621094 270.707031 579.515625 270.707031 L 581.664062 270.707031 L 581.664062 273.175781 L 579.039062 273.175781 C 577.414062 273.175781 576.199219 272.800781 575.390625 272.054688 C 574.582031 271.308594 574.171875 270.082031 574.171875 268.367188 L 574.171875 258.019531 L 571.898438 258.019531 L 571.898438 255.621094 L 574.171875 255.621094 L 574.171875 251.203125 L 577.085938 251.203125 L 577.085938 255.621094 L 581.671875 255.621094 L 581.671875 258.019531 Z M 577.078125 258.019531 " fill-opacity="1" fill-rule="nonzero"/><path fill="#231f20" d="M 606.761719 262.011719 C 605.492188 263.238281 603.554688 263.851562 600.945312 263.851562 L 596.652344 263.851562 L 596.652344 273.175781 L 593.738281 273.175781 L 593.738281 250.851562 L 600.945312 250.851562 C 603.464844 250.851562 605.378906 251.457031 606.695312 252.675781 C 608.011719 253.894531 608.660156 255.464844 608.660156 257.386719 C 608.667969 259.238281 608.03125 260.78125 606.761719 262.011719 Z M 604.535156 260.390625 C 605.304688 259.6875 605.683594 258.679688 605.683594 257.378906 C 605.683594 254.625 604.101562 253.242188 600.945312 253.242188 L 596.652344 253.242188 L 596.652344 261.445312 L 600.945312 261.445312 C 602.566406 261.453125 603.765625 261.09375 604.535156 260.390625 Z M 604.535156 260.390625 " fill-opacity="1" fill-rule="nonzero"/><path fill="#231f20" d="M 612.289062 249.46875 L 615.203125 249.46875 L 615.203125 273.167969 L 612.289062 273.167969 Z M 612.289062 249.46875 " fill-opacity="1" fill-rule="nonzero"/><path fill="#231f20" d="M 620.167969 259.605469 C 620.894531 258.253906 621.886719 257.199219 623.160156 256.449219 C 624.429688 255.703125 625.84375 255.328125 627.40625 255.328125 C 628.945312 255.328125 630.277344 255.660156 631.414062 256.324219 C 632.542969 256.988281 633.386719 257.820312 633.941406 258.820312 L 633.941406 255.621094 L 636.886719 255.621094 L 636.886719 273.175781 L 633.941406 273.175781 L 633.941406 269.910156 C 633.363281 270.933594 632.503906 271.777344 631.359375 272.449219 C 630.214844 273.125 628.886719 273.460938 627.375 273.460938 C 625.8125 273.460938 624.40625 273.078125 623.144531 272.308594 C 621.886719 271.539062 620.894531 270.460938 620.167969 269.070312 C 619.441406 267.679688 619.074219 266.101562 619.074219 264.332031 C 619.074219 262.535156 619.433594 260.96875 620.167969 259.605469 Z M 633.140625 260.90625 C 632.601562 259.925781 631.882812 259.171875 630.980469 258.648438 C 630.066406 258.125 629.074219 257.863281 627.980469 257.863281 C 626.890625 257.863281 625.902344 258.117188 625.003906 258.632812 C 624.109375 259.148438 623.390625 259.890625 622.859375 260.878906 C 622.320312 261.855469 622.058594 263.007812 622.058594 264.339844 C 622.058594 265.683594 622.328125 266.851562 622.859375 267.84375 C 623.390625 268.839844 624.109375 269.59375 625.003906 270.117188 C 625.902344 270.640625 626.898438 270.902344 627.980469 270.902344 C 629.074219 270.902344 630.066406 270.640625 630.980469 270.117188 C 631.882812 269.59375 632.609375 268.839844 633.140625 267.84375 C 633.671875 266.851562 633.941406 265.691406 633.941406 264.367188 C 633.941406 263.039062 633.671875 261.886719 633.140625 260.90625 Z M 633.140625 260.90625 " fill-opacity="1" fill-rule="nonzero"/><path fill="#231f20" d="M 655.554688 257.234375 C 656.878906 258.53125 657.542969 260.390625 657.542969 262.828125 L 657.542969 273.175781 L 654.65625 273.175781 L 654.65625 263.246094 C 654.65625 261.496094 654.214844 260.152344 653.339844 259.226562 C 652.46875 258.296875 651.269531 257.835938 649.753906 257.835938 C 648.210938 257.835938 646.992188 258.3125 646.082031 259.277344 C 645.175781 260.234375 644.722656 261.640625 644.722656 263.472656 L 644.722656 273.175781 L 641.804688 273.175781 L 641.804688 255.621094 L 644.722656 255.621094 L 644.722656 258.117188 C 645.296875 257.222656 646.082031 256.527344 647.078125 256.03125 C 648.070312 255.539062 649.164062 255.300781 650.359375 255.300781 C 652.503906 255.300781 654.230469 255.949219 655.554688 257.234375 Z M 655.554688 257.234375 " fill-opacity="1" fill-rule="nonzero"/><path fill="#231f20" d="M 664.910156 272.773438 C 663.839844 272.316406 662.996094 271.671875 662.382812 270.851562 C 661.761719 270.027344 661.417969 269.085938 661.355469 268.015625 L 664.371094 268.015625 C 664.453125 268.890625 664.863281 269.609375 665.605469 270.164062 C 666.34375 270.714844 667.308594 270.992188 668.503906 270.992188 C 669.609375 270.992188 670.492188 270.746094 671.128906 270.253906 C 671.773438 269.757812 672.085938 269.144531 672.085938 268.390625 C 672.085938 267.621094 671.742188 267.054688 671.0625 266.679688 C 670.382812 266.304688 669.320312 265.9375 667.890625 265.574219 C 666.589844 265.230469 665.527344 264.882812 664.707031 264.53125 C 663.882812 264.183594 663.179688 263.660156 662.589844 262.964844 C 662 262.269531 661.707031 261.355469 661.707031 260.226562 C 661.707031 259.328125 661.976562 258.507812 662.507812 257.757812 C 663.039062 257.011719 663.800781 256.421875 664.78125 255.980469 C 665.761719 255.546875 666.882812 255.320312 668.144531 255.320312 C 670.089844 255.320312 671.660156 255.816406 672.855469 256.792969 C 674.050781 257.773438 674.695312 259.121094 674.777344 260.832031 L 671.863281 260.832031 C 671.792969 259.914062 671.429688 259.179688 670.753906 258.617188 C 670.082031 258.066406 669.175781 257.789062 668.046875 257.789062 C 667 257.789062 666.164062 258.011719 665.550781 258.460938 C 664.929688 258.910156 664.625 259.5 664.625 260.226562 C 664.625 260.800781 664.8125 261.28125 665.183594 261.65625 C 665.558594 262.027344 666.03125 262.328125 666.589844 262.550781 C 667.160156 262.777344 667.945312 263.03125 668.945312 263.308594 C 670.203125 263.652344 671.226562 263.988281 672.019531 264.316406 C 672.804688 264.644531 673.484375 265.144531 674.050781 265.804688 C 674.621094 266.46875 674.910156 267.328125 674.933594 268.398438 C 674.933594 269.363281 674.664062 270.222656 674.132812 270.992188 C 673.597656 271.761719 672.847656 272.359375 671.875 272.800781 C 670.90625 273.234375 669.789062 273.460938 668.527344 273.460938 C 667.1875 273.460938 665.976562 273.230469 664.910156 272.773438 Z M 664.910156 272.773438 " fill-opacity="1" fill-rule="nonzero"/><path fill="#231f20" d="M 691.144531 258.019531 L 691.144531 268.367188 C 691.144531 269.222656 691.324219 269.828125 691.691406 270.179688 C 692.054688 270.53125 692.683594 270.707031 693.582031 270.707031 L 695.726562 270.707031 L 695.726562 273.175781 L 693.101562 273.175781 C 691.480469 273.175781 690.261719 272.800781 689.453125 272.054688 C 688.648438 271.308594 688.234375 270.082031 688.234375 268.367188 L 688.234375 258.019531 L 685.960938 258.019531 L 685.960938 255.621094 L 688.234375 255.621094 L 688.234375 251.203125 L 691.152344 251.203125 L 691.152344 255.621094 L 695.734375 255.621094 L 695.734375 258.019531 Z M 691.144531 258.019531 " fill-opacity="1" fill-rule="nonzero"/><path fill="#231f20" d="M 702.433594 272.339844 C 701.09375 271.589844 700.046875 270.53125 699.292969 269.152344 C 698.53125 267.777344 698.15625 266.179688 698.15625 264.367188 C 698.15625 262.574219 698.546875 260.988281 699.324219 259.613281 C 700.101562 258.238281 701.164062 257.175781 702.507812 256.445312 C 703.855469 255.703125 705.355469 255.335938 707.023438 255.335938 C 708.691406 255.335938 710.195312 255.703125 711.539062 256.445312 C 712.886719 257.175781 713.949219 258.230469 714.726562 259.597656 C 715.503906 260.96875 715.890625 262.558594 715.890625 264.367188 C 715.890625 266.179688 715.496094 267.777344 714.6875 269.152344 C 713.886719 270.53125 712.804688 271.589844 711.4375 272.339844 C 710.066406 273.085938 708.550781 273.460938 706.890625 273.460938 C 705.261719 273.460938 703.773438 273.085938 702.433594 272.339844 Z M 709.851562 270.164062 C 710.769531 269.667969 711.511719 268.9375 712.078125 267.949219 C 712.648438 266.96875 712.929688 265.773438 712.929688 264.359375 C 712.929688 262.949219 712.65625 261.757812 712.101562 260.773438 C 711.546875 259.792969 710.824219 259.058594 709.925781 258.582031 C 709.027344 258.101562 708.054688 257.863281 707.007812 257.863281 C 705.941406 257.863281 704.96875 258.101562 704.078125 258.582031 C 703.1875 259.058594 702.480469 259.792969 701.949219 260.773438 C 701.410156 261.75 701.148438 262.949219 701.148438 264.359375 C 701.148438 265.789062 701.410156 267 701.933594 267.980469 C 702.457031 268.960938 703.152344 269.691406 704.035156 270.171875 C 704.910156 270.648438 705.875 270.886719 706.917969 270.886719 C 707.964844 270.886719 708.929688 270.65625 709.851562 270.164062 Z M 709.851562 270.164062 " fill-opacity="1" fill-rule="nonzero"/><path fill="#231f20" d="M 731.421875 272.617188 C 730.253906 272.09375 729.34375 271.367188 728.683594 270.441406 C 728.019531 269.511719 727.683594 268.4375 727.660156 267.226562 L 730.761719 267.226562 C 730.867188 268.273438 731.300781 269.152344 732.0625 269.863281 C 732.820312 270.582031 733.925781 270.933594 735.375 270.933594 C 736.765625 270.933594 737.859375 270.589844 738.660156 269.894531 C 739.457031 269.199219 739.863281 268.308594 739.863281 267.21875 C 739.863281 266.363281 739.628906 265.667969 739.160156 265.132812 C 738.6875 264.601562 738.105469 264.1875 737.402344 263.914062 C 736.699219 263.636719 735.75 263.335938 734.554688 263.015625 C 733.082031 262.632812 731.898438 262.246094 731.015625 261.863281 C 730.128906 261.484375 729.371094 260.878906 728.746094 260.054688 C 728.117188 259.230469 727.800781 258.125 727.800781 256.742188 C 727.800781 255.523438 728.109375 254.445312 728.730469 253.503906 C 729.351562 252.5625 730.21875 251.835938 731.339844 251.328125 C 732.460938 250.8125 733.746094 250.558594 735.195312 250.558594 C 737.289062 250.558594 739.003906 251.082031 740.332031 252.128906 C 741.671875 253.175781 742.417969 254.566406 742.589844 256.292969 L 739.390625 256.292969 C 739.285156 255.441406 738.835938 254.6875 738.046875 254.035156 C 737.253906 253.386719 736.207031 253.054688 734.90625 253.054688 C 733.6875 253.054688 732.691406 253.371094 731.929688 254.007812 C 731.160156 254.632812 730.777344 255.515625 730.777344 256.644531 C 730.777344 257.460938 731.007812 258.117188 731.464844 258.632812 C 731.921875 259.148438 732.488281 259.539062 733.164062 259.800781 C 733.835938 260.070312 734.777344 260.367188 735.996094 260.710938 C 737.46875 261.117188 738.660156 261.519531 739.554688 261.917969 C 740.453125 262.3125 741.222656 262.917969 741.859375 263.742188 C 742.492188 264.5625 742.816406 265.675781 742.816406 267.089844 C 742.816406 268.183594 742.53125 269.207031 741.949219 270.164062 C 741.371094 271.128906 740.519531 271.90625 739.382812 272.503906 C 738.253906 273.101562 736.917969 273.402344 735.375 273.402344 C 733.902344 273.402344 732.585938 273.140625 731.421875 272.617188 Z M 731.421875 272.617188 " fill-opacity="1" fill-rule="nonzero"/><path fill="#231f20" d="M 750.660156 258.019531 L 750.660156 268.367188 C 750.660156 269.222656 750.835938 269.828125 751.203125 270.179688 C 751.570312 270.53125 752.199219 270.707031 753.097656 270.707031 L 755.242188 270.707031 L 755.242188 273.175781 L 752.617188 273.175781 C 750.996094 273.175781 749.777344 272.800781 748.96875 272.054688 C 748.160156 271.308594 747.75 270.082031 747.75 268.367188 L 747.75 258.019531 L 745.476562 258.019531 L 745.476562 255.621094 L 747.75 255.621094 L 747.75 251.203125 L 750.664062 251.203125 L 750.664062 255.621094 L 755.25 255.621094 L 755.25 258.019531 Z M 750.660156 258.019531 " fill-opacity="1" fill-rule="nonzero"/><path fill="#231f20" d="M 763.871094 256.128906 C 764.820312 255.574219 765.976562 255.300781 767.347656 255.300781 L 767.347656 258.3125 L 766.578125 258.3125 C 763.308594 258.3125 761.679688 260.085938 761.679688 263.628906 L 761.679688 273.175781 L 758.761719 273.175781 L 758.761719 255.621094 L 761.679688 255.621094 L 761.679688 258.46875 C 762.1875 257.46875 762.921875 256.691406 763.871094 256.128906 Z M 763.871094 256.128906 " fill-opacity="1" fill-rule="nonzero"/><path fill="#231f20" d="M 773.894531 272.339844 C 772.558594 271.589844 771.511719 270.53125 770.753906 269.152344 C 769.992188 267.777344 769.621094 266.179688 769.621094 264.367188 C 769.621094 262.574219 770.007812 260.988281 770.785156 259.613281 C 771.5625 258.238281 772.625 257.175781 773.972656 256.445312 C 775.316406 255.703125 776.820312 255.335938 778.488281 255.335938 C 780.152344 255.335938 781.65625 255.703125 783.003906 256.445312 C 784.347656 257.175781 785.410156 258.230469 786.1875 259.597656 C 786.964844 260.96875 787.355469 262.558594 787.355469 264.367188 C 787.355469 266.179688 786.957031 267.777344 786.152344 269.152344 C 785.351562 270.53125 784.265625 271.589844 782.898438 272.339844 C 781.53125 273.085938 780.011719 273.460938 778.351562 273.460938 C 776.722656 273.460938 775.234375 273.085938 773.894531 272.339844 Z M 781.3125 270.164062 C 782.234375 269.667969 782.972656 268.9375 783.539062 267.949219 C 784.109375 266.96875 784.394531 265.773438 784.394531 264.359375 C 784.394531 262.949219 784.117188 261.757812 783.5625 260.773438 C 783.011719 259.785156 782.285156 259.058594 781.386719 258.582031 C 780.492188 258.101562 779.519531 257.863281 778.472656 257.863281 C 777.402344 257.863281 776.429688 258.101562 775.539062 258.582031 C 774.652344 259.058594 773.941406 259.792969 773.410156 260.773438 C 772.871094 261.75 772.609375 262.949219 772.609375 264.359375 C 772.609375 265.789062 772.871094 267 773.394531 267.980469 C 773.917969 268.960938 774.613281 269.691406 775.496094 270.171875 C 776.371094 270.648438 777.335938 270.886719 778.382812 270.886719 C 779.429688 270.886719 780.394531 270.65625 781.3125 270.164062 Z M 781.3125 270.164062 " fill-opacity="1" fill-rule="nonzero"/><path fill="#231f20" d="M 804.945312 257.234375 C 806.269531 258.53125 806.933594 260.390625 806.933594 262.828125 L 806.933594 273.175781 L 804.050781 273.175781 L 804.050781 263.246094 C 804.050781 261.496094 803.609375 260.152344 802.734375 259.226562 C 801.859375 258.296875 800.664062 257.835938 799.144531 257.835938 C 797.605469 257.835938 796.386719 258.3125 795.472656 259.277344 C 794.570312 260.234375 794.113281 261.640625 794.113281 263.472656 L 794.113281 273.175781 L 791.195312 273.175781 L 791.195312 255.621094 L 794.113281 255.621094 L 794.113281 258.117188 C 794.6875 257.222656 795.472656 256.527344 796.46875 256.03125 C 797.460938 255.539062 798.554688 255.300781 799.75 255.300781 C 801.894531 255.300781 803.625 255.949219 804.945312 257.234375 Z M 804.945312 257.234375 " fill-opacity="1" fill-rule="nonzero"/><path fill="#231f20" d="M 822.9375 256.324219 C 824.078125 256.988281 824.925781 257.820312 825.476562 258.820312 L 825.476562 255.621094 L 828.421875 255.621094 L 828.421875 273.558594 C 828.421875 275.15625 828.078125 276.585938 827.398438 277.835938 C 826.710938 279.082031 825.738281 280.0625 824.46875 280.765625 C 823.195312 281.46875 821.714844 281.820312 820.035156 281.820312 C 817.730469 281.820312 815.800781 281.273438 814.269531 280.1875 C 812.730469 279.097656 811.824219 277.617188 811.546875 275.734375 L 814.433594 275.734375 C 814.757812 276.800781 815.414062 277.664062 816.421875 278.3125 C 817.425781 278.964844 818.636719 279.292969 820.042969 279.292969 C 821.640625 279.292969 822.949219 278.792969 823.96875 277.789062 C 824.984375 276.789062 825.484375 275.375 825.484375 273.558594 L 825.484375 269.871094 C 824.910156 270.894531 824.058594 271.75 822.921875 272.4375 C 821.792969 273.125 820.46875 273.460938 818.949219 273.460938 C 817.386719 273.460938 815.976562 273.078125 814.703125 272.308594 C 813.433594 271.539062 812.429688 270.460938 811.710938 269.070312 C 810.988281 267.679688 810.621094 266.101562 810.621094 264.332031 C 810.621094 262.535156 810.980469 260.960938 811.710938 259.605469 C 812.4375 258.253906 813.433594 257.199219 814.703125 256.449219 C 815.972656 255.703125 817.386719 255.328125 818.949219 255.328125 C 820.46875 255.328125 821.792969 255.664062 822.9375 256.324219 Z M 824.683594 260.90625 C 824.148438 259.925781 823.429688 259.171875 822.523438 258.648438 C 821.613281 258.125 820.617188 257.863281 819.527344 257.863281 C 818.433594 257.863281 817.449219 258.117188 816.550781 258.632812 C 815.652344 259.148438 814.933594 259.890625 814.40625 260.878906 C 813.867188 261.855469 813.605469 263.007812 813.605469 264.339844 C 813.605469 265.683594 813.875 266.851562 814.40625 267.84375 C 814.933594 268.839844 815.652344 269.59375 816.550781 270.117188 C 817.449219 270.640625 818.441406 270.902344 819.527344 270.902344 C 820.617188 270.902344 821.613281 270.640625 822.523438 270.117188 C 823.429688 269.59375 824.15625 268.839844 824.683594 267.84375 C 825.214844 266.851562 825.484375 265.691406 825.484375 264.367188 C 825.484375 263.039062 825.214844 261.886719 824.683594 260.90625 Z M 824.683594 260.90625 " fill-opacity="1" fill-rule="nonzero"/><path fill="#231f20" d="M 842.300781 256.113281 C 843.28125 254.371094 844.625 253.011719 846.324219 252.03125 C 848.019531 251.054688 849.902344 250.558594 851.976562 250.558594 C 854.414062 250.558594 856.535156 251.148438 858.351562 252.324219 C 860.167969 253.496094 861.492188 255.164062 862.324219 257.316406 L 858.832031 257.316406 C 858.210938 255.972656 857.320312 254.941406 856.15625 254.207031 C 854.988281 253.484375 853.597656 253.117188 851.976562 253.117188 C 850.414062 253.117188 849.015625 253.484375 847.78125 254.207031 C 846.539062 254.933594 845.566406 255.964844 844.863281 257.304688 C 844.160156 258.640625 843.8125 260.203125 843.8125 262 C 843.8125 263.769531 844.160156 265.324219 844.863281 266.65625 C 845.566406 267.996094 846.539062 269.019531 847.78125 269.753906 C 849.023438 270.476562 850.421875 270.84375 851.976562 270.84375 C 853.597656 270.84375 854.988281 270.484375 856.15625 269.773438 C 857.320312 269.054688 858.210938 268.023438 858.832031 266.679688 L 862.324219 266.679688 C 861.492188 268.816406 860.164062 270.460938 858.351562 271.628906 C 856.535156 272.796875 854.414062 273.378906 851.976562 273.378906 C 849.902344 273.378906 848.019531 272.890625 846.324219 271.921875 C 844.625 270.949219 843.285156 269.59375 842.300781 267.867188 C 841.320312 266.140625 840.828125 264.183594 840.828125 262.007812 C 840.828125 259.832031 841.3125 257.855469 842.300781 256.113281 Z M 842.300781 256.113281 " fill-opacity="1" fill-rule="nonzero"/><path fill="#231f20" d="M 882.5625 265.492188 L 868.527344 265.492188 C 868.632812 267.21875 869.230469 268.570312 870.308594 269.542969 C 871.382812 270.515625 872.691406 271 874.234375 271 C 875.496094 271 876.542969 270.707031 877.386719 270.117188 C 878.234375 269.535156 878.824219 268.75 879.167969 267.761719 L 882.308594 267.761719 C 881.835938 269.453125 880.902344 270.820312 879.488281 271.875 C 878.074219 272.929688 876.328125 273.460938 874.234375 273.460938 C 872.566406 273.460938 871.078125 273.085938 869.761719 272.339844 C 868.445312 271.589844 867.421875 270.53125 866.675781 269.152344 C 865.925781 267.777344 865.550781 266.179688 865.550781 264.367188 C 865.550781 262.558594 865.910156 260.960938 866.644531 259.597656 C 867.371094 258.230469 868.394531 257.175781 869.703125 256.445312 C 871.019531 255.703125 872.527344 255.335938 874.234375 255.335938 C 875.898438 255.335938 877.375 255.703125 878.652344 256.429688 C 879.929688 257.152344 880.925781 258.148438 881.613281 259.417969 C 882.300781 260.691406 882.652344 262.125 882.652344 263.726562 C 882.660156 264.277344 882.628906 264.871094 882.5625 265.492188 Z M 878.914062 260.25 C 878.421875 259.449219 877.753906 258.835938 876.910156 258.425781 C 876.066406 258.007812 875.128906 257.796875 874.105469 257.796875 C 872.632812 257.796875 871.378906 258.269531 870.34375 259.210938 C 869.304688 260.152344 868.714844 261.453125 868.566406 263.121094 L 879.644531 263.121094 C 879.644531 262.007812 879.398438 261.050781 878.914062 260.25 Z M 878.914062 260.25 " fill-opacity="1" fill-rule="nonzero"/><path fill="#231f20" d="M 886.503906 249.46875 L 889.417969 249.46875 L 889.417969 273.167969 L 886.503906 273.167969 Z M 886.503906 249.46875 " fill-opacity="1" fill-rule="nonzero"/><path fill="#231f20" d="M 910.300781 265.492188 L 896.265625 265.492188 C 896.371094 267.21875 896.96875 268.570312 898.046875 269.542969 C 899.125 270.515625 900.429688 271 901.972656 271 C 903.234375 271 904.28125 270.707031 905.125 270.117188 C 905.972656 269.535156 906.5625 268.75 906.90625 267.761719 L 910.046875 267.761719 C 909.574219 269.453125 908.640625 270.820312 907.226562 271.875 C 905.816406 272.929688 904.066406 273.460938 901.972656 273.460938 C 900.304688 273.460938 898.816406 273.085938 897.5 272.339844 C 896.183594 271.589844 895.160156 270.53125 894.414062 269.152344 C 893.664062 267.777344 893.292969 266.179688 893.292969 264.367188 C 893.292969 262.558594 893.648438 260.960938 894.382812 259.597656 C 895.109375 258.230469 896.125 257.175781 897.441406 256.445312 C 898.757812 255.703125 900.265625 255.335938 901.972656 255.335938 C 903.640625 255.335938 905.113281 255.703125 906.390625 256.429688 C 907.667969 257.152344 908.664062 258.148438 909.351562 259.417969 C 910.039062 260.691406 910.390625 262.125 910.390625 263.726562 C 910.398438 264.277344 910.359375 264.871094 910.300781 265.492188 Z M 906.652344 260.25 C 906.160156 259.449219 905.492188 258.835938 904.648438 258.425781 C 903.804688 258.007812 902.867188 257.796875 901.84375 257.796875 C 900.371094 257.796875 899.117188 258.269531 898.082031 259.210938 C 897.042969 260.152344 896.453125 261.453125 896.304688 263.121094 L 907.382812 263.121094 C 907.386719 262.007812 907.136719 261.050781 906.652344 260.25 Z M 906.652344 260.25 " fill-opacity="1" fill-rule="nonzero"/><path fill="#231f20" d="M 919.78125 256.324219 C 920.933594 255.660156 922.25 255.328125 923.722656 255.328125 C 925.300781 255.328125 926.71875 255.703125 927.984375 256.449219 C 929.246094 257.199219 930.234375 258.253906 930.957031 259.605469 C 931.683594 260.960938 932.050781 262.535156 932.050781 264.332031 C 932.050781 266.101562 931.683594 267.679688 930.957031 269.070312 C 930.234375 270.460938 929.230469 271.539062 927.960938 272.308594 C 926.691406 273.078125 925.277344 273.460938 923.714844 273.460938 C 922.195312 273.460938 920.863281 273.132812 919.730469 272.464844 C 918.585938 271.800781 917.726562 270.964844 917.148438 269.9375 L 917.148438 273.175781 L 914.234375 273.175781 L 914.234375 249.476562 L 917.148438 249.476562 L 917.148438 258.886719 C 917.753906 257.839844 918.628906 256.988281 919.78125 256.324219 Z M 928.265625 260.878906 C 927.730469 259.898438 927.011719 259.148438 926.105469 258.632812 C 925.195312 258.117188 924.199219 257.863281 923.109375 257.863281 C 922.039062 257.863281 921.050781 258.125 920.148438 258.648438 C 919.242188 259.171875 918.515625 259.925781 917.972656 260.921875 C 917.425781 261.917969 917.15625 263.058594 917.15625 264.367188 C 917.15625 265.691406 917.425781 266.851562 917.972656 267.84375 C 918.515625 268.839844 919.242188 269.59375 920.148438 270.117188 C 921.050781 270.640625 922.039062 270.902344 923.109375 270.902344 C 924.199219 270.902344 925.195312 270.640625 926.105469 270.117188 C 927.011719 269.59375 927.738281 268.839844 928.265625 267.84375 C 928.796875 266.851562 929.066406 265.683594 929.066406 264.339844 C 929.066406 263.007812 928.804688 261.855469 928.265625 260.878906 Z M 928.265625 260.878906 " fill-opacity="1" fill-rule="nonzero"/><path fill="#231f20" d="M 941 256.128906 C 941.949219 255.574219 943.109375 255.300781 944.476562 255.300781 L 944.476562 258.3125 L 943.707031 258.3125 C 940.4375 258.3125 938.808594 260.085938 938.808594 263.628906 L 938.808594 273.175781 L 935.894531 273.175781 L 935.894531 255.621094 L 938.808594 255.621094 L 938.808594 258.46875 C 939.316406 257.46875 940.050781 256.691406 941 256.128906 Z M 941 256.128906 " fill-opacity="1" fill-rule="nonzero"/><path fill="#231f20" d="M 947.839844 259.605469 C 948.566406 258.253906 949.566406 257.199219 950.832031 256.449219 C 952.101562 255.703125 953.515625 255.328125 955.078125 255.328125 C 956.617188 255.328125 957.949219 255.660156 959.085938 256.324219 C 960.214844 256.988281 961.058594 257.820312 961.613281 258.820312 L 961.613281 255.621094 L 964.558594 255.621094 L 964.558594 273.175781 L 961.613281 273.175781 L 961.613281 269.910156 C 961.039062 270.933594 960.179688 271.777344 959.035156 272.449219 C 957.890625 273.125 956.558594 273.460938 955.050781 273.460938 C 953.484375 273.460938 952.082031 273.078125 950.816406 272.308594 C 949.5625 271.539062 948.566406 270.460938 947.839844 269.070312 C 947.117188 267.679688 946.75 266.101562 946.75 264.332031 C 946.75 262.535156 947.117188 260.96875 947.839844 259.605469 Z M 960.8125 260.90625 C 960.273438 259.925781 959.558594 259.171875 958.652344 258.648438 C 957.742188 258.125 956.746094 257.863281 955.65625 257.863281 C 954.5625 257.863281 953.574219 258.117188 952.679688 258.632812 C 951.78125 259.148438 951.0625 259.890625 950.53125 260.878906 C 949.996094 261.855469 949.734375 263.007812 949.734375 264.339844 C 949.734375 265.683594 950.003906 266.851562 950.53125 267.84375 C 951.0625 268.839844 951.78125 269.59375 952.679688 270.117188 C 953.574219 270.640625 954.570312 270.902344 955.65625 270.902344 C 956.746094 270.902344 957.742188 270.640625 958.652344 270.117188 C 959.558594 269.59375 960.28125 268.839844 960.8125 267.84375 C 961.34375 266.851562 961.613281 265.691406 961.613281 264.367188 C 961.613281 263.039062 961.34375 261.886719 960.8125 260.90625 Z M 960.8125 260.90625 " fill-opacity="1" fill-rule="nonzero"/><path fill="#231f20" d="M 973.046875 258.019531 L 973.046875 268.367188 C 973.046875 269.222656 973.222656 269.828125 973.589844 270.179688 C 973.957031 270.53125 974.585938 270.707031 975.484375 270.707031 L 977.628906 270.707031 L 977.628906 273.175781 L 975.003906 273.175781 C 973.382812 273.175781 972.164062 272.800781 971.355469 272.054688 C 970.546875 271.308594 970.136719 270.082031 970.136719 268.367188 L 970.136719 258.019531 L 967.863281 258.019531 L 967.863281 255.621094 L 970.136719 255.621094 L 970.136719 251.203125 L 973.050781 251.203125 L 973.050781 255.621094 L 977.636719 255.621094 L 977.636719 258.019531 Z M 973.046875 258.019531 " fill-opacity="1" fill-rule="nonzero"/><path fill="#231f20" d="M 981.246094 252.195312 C 980.867188 251.816406 980.671875 251.34375 980.671875 250.785156 C 980.671875 250.230469 980.867188 249.757812 981.246094 249.378906 C 981.636719 248.996094 982.097656 248.800781 982.660156 248.800781 C 983.191406 248.800781 983.648438 248.996094 984.019531 249.378906 C 984.394531 249.757812 984.582031 250.230469 984.582031 250.785156 C 984.582031 251.335938 984.394531 251.808594 984.019531 252.195312 C 983.648438 252.578125 983.191406 252.773438 982.660156 252.773438 C 982.105469 252.773438 981.636719 252.578125 981.246094 252.195312 Z M 984.066406 255.621094 L 984.066406 273.175781 L 981.148438 273.175781 L 981.148438 255.621094 Z M 984.066406 255.621094 " fill-opacity="1" fill-rule="nonzero"/><path fill="#231f20" d="M 992.214844 272.339844 C 990.878906 271.589844 989.832031 270.53125 989.074219 269.152344 C 988.3125 267.777344 987.9375 266.179688 987.9375 264.367188 C 987.9375 262.574219 988.328125 260.988281 989.105469 259.613281 C 989.882812 258.238281 990.945312 257.175781 992.289062 256.445312 C 993.636719 255.703125 995.140625 255.335938 996.804688 255.335938 C 998.472656 255.335938 999.976562 255.703125 1001.320312 256.445312 C 1002.667969 257.175781 1003.730469 258.230469 1004.507812 259.597656 C 1005.285156 260.96875 1005.671875 262.558594 1005.671875 264.367188 C 1005.671875 266.179688 1005.277344 267.777344 1004.46875 269.152344 C 1003.667969 270.53125 1002.585938 271.589844 1001.21875 272.339844 C 999.847656 273.085938 998.332031 273.460938 996.671875 273.460938 C 995.042969 273.460938 993.554688 273.085938 992.214844 272.339844 Z M 999.632812 270.164062 C 1000.550781 269.667969 1001.292969 268.9375 1001.859375 267.949219 C 1002.429688 266.96875 1002.710938 265.773438 1002.710938 264.359375 C 1002.710938 262.949219 1002.4375 261.757812 1001.882812 260.773438 C 1001.328125 259.792969 1000.605469 259.058594 999.707031 258.582031 C 998.808594 258.101562 997.835938 257.863281 996.792969 257.863281 C 995.722656 257.863281 994.75 258.101562 993.859375 258.582031 C 992.96875 259.058594 992.261719 259.792969 991.730469 260.773438 C 991.191406 261.75 990.929688 262.949219 990.929688 264.359375 C 990.929688 265.789062 991.191406 267 991.714844 267.980469 C 992.238281 268.960938 992.933594 269.691406 993.816406 270.171875 C 994.699219 270.648438 995.65625 270.886719 996.703125 270.886719 C 997.75 270.886719 998.710938 270.65625 999.632812 270.164062 Z M 999.632812 270.164062 " fill-opacity="1" fill-rule="nonzero"/><path fill="#231f20" d="M 1023.273438 257.234375 C 1024.597656 258.53125 1025.261719 260.390625 1025.261719 262.828125 L 1025.261719 273.175781 L 1022.375 273.175781 L 1022.375 263.246094 C 1022.375 261.496094 1021.933594 260.152344 1021.058594 259.226562 C 1020.1875 258.296875 1018.988281 257.835938 1017.472656 257.835938 C 1015.929688 257.835938 1014.710938 258.3125 1013.800781 259.277344 C 1012.894531 260.234375 1012.441406 261.640625 1012.441406 263.472656 L 1012.441406 273.175781 L 1009.523438 273.175781 L 1009.523438 255.621094 L 1012.441406 255.621094 L 1012.441406 258.117188 C 1013.015625 257.222656 1013.800781 256.527344 1014.796875 256.03125 C 1015.789062 255.539062 1016.882812 255.300781 1018.078125 255.300781 C 1020.214844 255.300781 1021.949219 255.949219 1023.273438 257.234375 Z M 1023.273438 257.234375 " fill-opacity="1" fill-rule="nonzero"/><path fill="#231f20" d="M 1032.625 272.773438 C 1031.558594 272.316406 1030.710938 271.671875 1030.101562 270.851562 C 1029.480469 270.027344 1029.136719 269.085938 1029.074219 268.015625 L 1032.089844 268.015625 C 1032.171875 268.890625 1032.582031 269.609375 1033.324219 270.164062 C 1034.0625 270.714844 1035.027344 270.992188 1036.222656 270.992188 C 1037.328125 270.992188 1038.210938 270.746094 1038.847656 270.253906 C 1039.492188 269.757812 1039.804688 269.144531 1039.804688 268.390625 C 1039.804688 267.621094 1039.460938 267.054688 1038.78125 266.679688 C 1038.101562 266.304688 1037.039062 265.9375 1035.609375 265.574219 C 1034.308594 265.230469 1033.246094 264.882812 1032.425781 264.53125 C 1031.601562 264.183594 1030.898438 263.660156 1030.308594 262.964844 C 1029.71875 262.269531 1029.425781 261.355469 1029.425781 260.226562 C 1029.425781 259.328125 1029.695312 258.507812 1030.226562 257.757812 C 1030.757812 257.011719 1031.519531 256.421875 1032.5 255.980469 C 1033.480469 255.546875 1034.601562 255.320312 1035.863281 255.320312 C 1037.808594 255.320312 1039.378906 255.816406 1040.574219 256.792969 C 1041.769531 257.773438 1042.414062 259.121094 1042.496094 260.832031 L 1039.582031 260.832031 C 1039.511719 259.914062 1039.148438 259.179688 1038.472656 258.617188 C 1037.800781 258.066406 1036.894531 257.789062 1035.765625 257.789062 C 1034.71875 257.789062 1033.882812 258.011719 1033.269531 258.460938 C 1032.648438 258.910156 1032.34375 259.5 1032.34375 260.226562 C 1032.34375 260.800781 1032.53125 261.28125 1032.902344 261.65625 C 1033.277344 262.027344 1033.75 262.328125 1034.308594 262.550781 C 1034.878906 262.777344 1035.664062 263.03125 1036.664062 263.308594 C 1037.921875 263.652344 1038.945312 263.988281 1039.738281 264.316406 C 1040.523438 264.644531 1041.203125 265.144531 1041.769531 265.804688 C 1042.339844 266.46875 1042.628906 267.328125 1042.652344 268.398438 C 1042.652344 269.363281 1042.382812 270.222656 1041.851562 270.992188 C 1041.316406 271.761719 1040.566406 272.359375 1039.59375 272.800781 C 1038.625 273.234375 1037.507812 273.460938 1036.246094 273.460938 C 1034.898438 273.460938 1033.695312 273.230469 1032.625 272.773438 Z M 1032.625 272.773438 " fill-opacity="1" fill-rule="nonzero"/><path stroke-linecap="butt" transform="matrix(0.747669, 0, 0, 0.747669, 1.748135, -0.306141)" fill="none" stroke-linejoin="miter" d="M 502.381504 77.38828 L 502.381504 387.482203 " stroke="#000000" stroke-width="2" stroke-opacity="1" stroke-miterlimit="10"/><path fill="#000096" d="M 232.800781 203.230469 C 253.355469 190.101562 272.515625 178.042969 291.476562 165.691406 C 305.667969 156.449219 313.273438 143.449219 310.101562 126.273438 C 304.957031 98.429688 275.902344 85.929688 251.269531 101.003906 C 227.410156 115.597656 204 130.925781 180.390625 145.921875 C 177.488281 147.769531 174.625 149.730469 171.566406 151.277344 C 160.820312 156.710938 149.25 153.929688 143.066406 144.585938 C 136.808594 135.132812 138.855469 121.625 149.097656 114.96875 C 177.953125 96.210938 206.503906 76.785156 236.574219 60.164062 C 269.578125 41.921875 310.625 51.53125 334.894531 80.242188 C 359.132812 108.914062 360.054688 150.859375 337.121094 181.886719 C 315.550781 211.074219 274.609375 222.074219 241.007812 207.65625 C 238.796875 206.695312 236.746094 205.363281 232.800781 203.230469 Z M 232.800781 203.230469 " fill-opacity="1" fill-rule="nonzero"/><path fill="#000096" d="M 201.339844 61.570312 C 180.785156 74.699219 161.621094 86.761719 142.660156 99.113281 C 128.46875 108.351562 120.867188 121.355469 124.035156 138.527344 C 129.179688 166.371094 158.234375 178.871094 182.871094 163.800781 C 206.730469 149.207031 230.136719 133.878906 253.75 118.878906 C 256.652344 117.03125 259.515625 115.074219 262.574219 113.527344 C 273.316406 108.089844 284.890625 110.871094 291.074219 120.21875 C 297.332031 129.667969 295.28125 143.179688 285.039062 149.832031 C 256.1875 168.59375 227.632812 188.015625 197.5625 204.636719 C 164.558594 222.878906 123.511719 213.273438 99.246094 184.5625 C 75.003906 155.890625 74.085938 113.945312 97.015625 82.917969 C 118.585938 53.726562 159.527344 42.730469 193.128906 57.144531 C 195.34375 58.109375 197.390625 59.441406 201.339844 61.570312 Z M 201.339844 61.570312 " fill-opacity="1" fill-rule="nonzero"/><path fill="#000096" d="M 354.804688 223.390625 C 354.804688 242.8125 347.246094 261.070312 333.511719 274.804688 C 319.777344 288.546875 301.511719 296.101562 282.09375 296.101562 C 262.664062 296.101562 244.398438 288.539062 230.667969 274.804688 C 223.214844 267.351562 217.570312 258.558594 213.980469 248.960938 C 216.402344 250.46875 219.261719 251.335938 222.308594 251.335938 C 222.527344 251.335938 222.738281 251.335938 222.960938 251.320312 C 229.355469 251.066406 234.757812 247.007812 237.007812 241.355469 C 244.15625 259.246094 261.675781 271.925781 282.09375 271.925781 C 302.167969 271.925781 319.433594 259.679688 326.8125 242.269531 C 331.605469 230.933594 342.5 223.390625 354.804688 223.390625 Z M 354.804688 223.390625 " fill-opacity="1" fill-rule="nonzero"/><path fill="#1c75bc" d="M 235.851562 229.976562 C 235.851562 231.941406 235.46875 233.828125 234.789062 235.546875 C 232.644531 240.960938 227.460938 244.839844 221.351562 245.078125 C 221.136719 245.09375 220.933594 245.09375 220.734375 245.09375 C 217.808594 245.09375 215.074219 244.265625 212.761719 242.820312 C 208.464844 240.160156 205.613281 235.398438 205.613281 229.976562 C 205.613281 226.714844 206.648438 223.6875 208.410156 221.222656 C 209.167969 220.152344 210.0625 219.1875 211.066406 218.351562 C 213.683594 216.167969 217.046875 214.859375 220.710938 214.859375 L 220.734375 214.859375 C 222.152344 214.859375 223.535156 215.050781 224.851562 215.417969 C 226.917969 216.003906 228.800781 217.011719 230.398438 218.351562 L 231.515625 219.359375 C 233.832031 221.714844 235.378906 224.816406 235.753906 228.277344 C 235.8125 228.839844 235.851562 229.398438 235.851562 229.976562 Z M 235.851562 229.976562 " fill-opacity="1" fill-rule="nonzero"/><path fill="#000096" d="M 942.308594 75.207031 L 950.398438 75.207031 L 950.398438 83.296875 L 942.308594 83.296875 Z M 942.308594 75.207031 " fill-opacity="1" fill-rule="nonzero"/><path fill="#000096" d="M 874.890625 75.207031 L 882.980469 75.207031 L 882.980469 83.296875 L 874.890625 83.296875 Z M 874.890625 75.207031 " fill-opacity="1" fill-rule="nonzero"/><path fill="#000096" d="M 585.085938 171.828125 L 593.175781 171.828125 L 593.175781 179.917969 L 585.085938 179.917969 Z M 585.085938 171.828125 " fill-opacity="1" fill-rule="nonzero"/></svg>